<svg width="438" height="421" viewBox="0 0 438 421" fill="none" xmlns="http://www.w3.org/2000/svg">
<g clip-path="url(#clip0_10_1455)">
<path d="M71.9884 51.1408L62.3081 48.1202C62.3081 48.1202 59.7724 56.2495 51.2793 53.7597C46.8692 52.4661 45.4913 48.8831 45.2533 46.3932C44.9779 43.5016 46.212 40.6893 48.3894 38.7678C50.8759 36.5726 55.2414 35.2344 61.4072 38.4187L68.2166 16.5911L58.6444 13.6052L54.6555 26.3909C54.6555 26.3909 40.1478 25.6737 35.5316 40.4691C31.1153 54.6247 42.7847 61.8731 48.2181 63.5684C52.374 64.8649 66.8437 68.2764 71.9884 51.1408Z" fill="#F3F2F1"/>
<path d="M62.7623 -0.000902067L72.4772 3.02959L69.6465 12.1033L59.9316 9.07177L62.7623 -0.000902067Z" fill="#F3F2F1"/>
<path d="M98.7076 26.497L102.585 25.4743C102.585 25.4743 101.726 22.2196 105.093 21.2683C106.841 20.7752 108.056 21.6859 108.659 22.4696C109.358 23.3802 109.536 24.5815 109.21 25.6826C108.839 26.9394 107.658 28.3054 104.925 28.5345L107.23 37.2749L111.063 36.2641L109.712 31.1435C109.712 31.1435 114.722 28.3361 113.159 22.411C111.663 16.7418 106.233 16.7667 104.057 17.341C102.393 17.7795 96.8302 19.6771 98.7076 26.497Z" fill="#E7E8E5"/>
<path d="M112.543 41.6862L108.653 42.7119L107.694 39.0783L111.584 38.0526L112.543 41.6862Z" fill="#E7E8E5"/>
<path d="M418.929 126.895L422.699 128.261C422.699 128.261 423.845 125.096 427.155 126.231C428.874 126.821 429.354 128.26 429.404 129.247C429.46 130.395 428.923 131.483 428.029 132.204C427.008 133.026 425.26 133.477 422.881 132.109L419.802 140.609L423.53 141.959L425.333 136.98C425.333 136.98 431.05 137.523 433.137 131.761C435.134 126.249 430.654 123.179 428.54 122.412C426.922 121.825 421.266 120.219 418.929 126.895Z" fill="#E7E8E5"/>
<path d="M421.66 147.259L417.876 145.888L419.157 142.356L422.94 143.726L421.66 147.259Z" fill="#E7E8E5"/>
<path d="M18.8744 170.071L26.8524 166.997C26.8524 166.997 24.2717 160.298 31.1866 157.497C34.7778 156.042 37.5647 157.688 39.0247 159.209C40.7212 160.975 41.3784 163.479 40.946 165.888C40.4523 168.641 38.2683 171.811 32.5272 172.935L39.4568 190.923L47.3454 187.885L43.286 177.348C43.286 177.348 53.2476 170.225 48.5509 158.032C44.0567 146.367 32.5513 147.687 28.073 149.413C24.6484 150.732 13.3018 156.054 18.8744 170.071Z" fill="#F3F2F1"/>
<path d="M51.7489 199.03L43.7433 202.115L40.8623 194.637L48.8683 191.553L51.7489 199.03Z" fill="#F3F2F1"/>
<path d="M422.03 200.335L416.378 202.513C416.378 202.513 418.206 207.26 413.305 209.245C410.761 210.277 408.785 209.11 407.75 208.032C406.549 206.781 406.083 205.006 406.389 203.298C406.74 201.348 408.286 199.101 412.355 198.304L407.445 185.558L401.854 187.711L404.732 195.178C404.732 195.178 397.671 200.225 401.001 208.865C404.185 217.132 412.338 216.197 415.512 214.974C417.939 214.039 425.979 210.268 422.03 200.335Z" fill="#F3F2F1"/>
<path d="M398.734 179.813L404.408 177.626L406.449 182.926L400.775 185.111L398.734 179.813Z" fill="#F3F2F1"/>
<path d="M389.101 47.7036H385.151C385.151 47.7036 385.151 51.0188 381.707 51.0783C379.916 51.109 378.988 49.9375 378.611 49.0388C378.173 47.9962 378.306 46.8078 378.894 45.8406C379.562 44.7365 381.03 43.7327 383.692 44.2019V35.2978H379.787V40.5137C379.787 40.5137 374.311 41.9292 374.311 47.9645C374.311 53.7388 379.489 55.08 381.706 55.08C383.401 55.08 389.175 54.6703 389.101 47.7036Z" fill="#CCA016"/>
<path d="M379.74 29.7626H383.703V33.4636H379.74V29.7626Z" fill="#CCA016"/>
<path d="M410.727 42.4192C410.738 42.4192 410.741 42.2505 410.735 41.9192C410.725 41.5571 410.712 41.0711 410.694 40.4511C410.68 40.1277 410.68 39.7656 410.646 39.3678C410.59 38.971 410.53 38.5386 410.464 38.0733C410.396 37.6031 410.325 37.0992 410.247 36.5615C410.115 36.0308 409.976 35.4674 409.829 34.8722C409.219 32.5004 408.175 29.6246 406.259 26.6863C404.374 23.7491 401.678 20.6967 398.013 18.2198C394.345 15.7884 389.729 13.9135 384.545 13.4166C383.247 13.368 381.928 13.2112 380.587 13.3372C379.917 13.3829 379.237 13.3699 378.562 13.4681C377.888 13.5693 377.207 13.6715 376.523 13.7747C373.819 14.3272 371.047 15.1327 368.468 16.5254C365.881 17.8874 363.42 19.6432 361.227 21.7869C359.081 23.9733 357.218 26.5266 355.782 29.3687C354.335 32.2008 353.335 35.3404 352.945 38.608C352.786 39.4174 352.786 40.2458 352.736 41.0721C352.682 41.8994 352.653 42.7297 352.691 43.5639C352.759 45.2305 352.968 46.9019 353.321 48.5536C354.085 52.1426 355.546 55.5213 357.502 58.4883L357.472 58.1868C356.089 61.6299 354.733 65.0086 353.41 68.3059L353.17 68.9051L353.792 68.7345C357.505 67.7127 361.116 66.7198 364.609 65.7595L364.343 65.7079C368.116 68.548 372.425 70.3584 376.704 71.1073C378.842 71.4843 380.975 71.643 383.037 71.5011C384.07 71.4575 385.09 71.4079 386.08 71.2144C386.577 71.1371 387.07 71.0607 387.56 70.9843C388.046 70.894 388.518 70.7462 388.992 70.6312C396.606 68.676 402.231 63.9859 405.45 59.3404C407.088 57.0152 408.262 54.7227 408.994 52.6217C409.182 52.0989 409.362 51.594 409.536 51.1089C409.663 50.61 409.784 50.1309 409.901 49.6726C410.015 49.2143 410.123 48.7758 410.227 48.3582C410.309 47.9366 410.351 47.5289 410.41 47.148C410.507 46.3822 410.64 45.7106 410.669 45.1213C410.688 44.542 410.705 44.047 410.718 43.6343C410.726 43.2584 410.733 42.9588 410.738 42.7267C410.739 42.5223 410.736 42.4192 410.727 42.4192C410.718 42.4192 410.705 42.5223 410.685 42.7257C410.668 42.9578 410.643 43.2554 410.614 43.6304C410.587 44.0401 410.554 44.5311 410.515 45.1075C410.469 45.6917 410.321 46.3573 410.21 47.1142C409.663 50.0932 408.476 54.5581 405.141 59.1182C401.921 63.6734 396.35 68.2435 388.864 70.1243C388.398 70.2344 387.935 70.3782 387.455 70.4645C386.974 70.5369 386.49 70.6103 386.002 70.6828C385.029 70.8692 384.029 70.9129 383.015 70.9506C380.992 71.0825 378.9 70.9168 376.807 70.5409C372.616 69.7909 368.402 68.0054 364.714 65.2149L364.593 65.1237L364.446 65.1634C360.952 66.1176 357.338 67.1027 353.623 68.1165L354.004 68.545C355.331 65.2487 356.691 61.872 358.077 58.4298L358.141 58.272L358.046 58.1282C356.137 55.2257 354.71 51.9234 353.963 48.4157C353.618 46.8018 353.413 45.167 353.346 43.5381C353.308 42.7227 353.337 41.9103 353.391 41.1018C353.438 40.2943 353.436 39.4829 353.594 38.6923C353.972 35.4971 354.945 32.4289 356.357 29.6563C357.757 26.8758 359.575 24.375 361.671 22.2313C363.813 20.1283 366.217 18.4033 368.746 17.0631C371.268 15.6902 373.98 14.8946 376.628 14.3421C377.299 14.2389 377.965 14.1358 378.626 14.0336C379.287 13.9354 379.955 13.9463 380.611 13.8977C381.926 13.7677 383.222 13.9185 384.495 13.9592C389.585 14.4234 394.129 16.2388 397.755 18.6057C401.378 21.0182 404.06 24.004 405.951 26.8847C407.872 29.7674 408.94 32.5976 409.582 34.9386C409.738 35.5269 409.887 36.0824 410.025 36.6062C410.113 37.1389 410.195 37.6368 410.271 38.1021C410.347 38.5633 410.418 38.9919 410.482 39.3857C410.526 39.7785 410.537 40.1396 410.562 40.459C410.607 41.076 410.642 41.5601 410.669 41.9202C410.697 42.2505 410.716 42.4192 410.727 42.4192Z" fill="#17282F"/>
<path d="M114.91 159.412H172.2C172.2 159.412 172.2 111.309 222.189 110.448C248.15 110.001 261.611 127.007 267.08 140.034C273.431 155.164 271.509 172.406 262.999 186.435C253.283 202.457 232.355 218.556 193.746 211.753L193.38 339.389H250.028V263.724C250.028 263.724 329.478 243.186 329.478 155.628C329.478 71.8553 261.733 53.7576 225.325 52.595C205.064 51.9472 197.721 51.0773 172.663 54.6335C140.731 59.1669 114.235 96.2442 114.91 159.412Z" fill="#CCA016"/>
<path d="M193.221 419.695H250.712V366H193.221V419.695Z" fill="#CCA016"/>
<path d="M250.713 419.695H226.981V366H193.221H250.713V405.107V418.477V419.695Z" fill="#17282F"/>
<path d="M250.028 339.389H226.297V263.724C226.297 263.724 290.098 247.226 303.354 180.793C303.657 180.896 303.983 180.984 304.332 181.055L326.972 181.351C313.473 247.321 250.028 263.724 250.028 263.724V328.642V328.994V339.389ZM172.2 159.412H148.469C148.469 159.412 148.469 111.309 198.458 110.448C198.792 110.442 199.127 110.439 199.457 110.439C203.464 110.439 207.167 110.859 210.583 111.616C172.199 119.077 172.2 159.412 172.2 159.412ZM292.837 102.972C269.93 63.1318 222.346 52.3976 198.463 52.3976C195.864 52.3976 192.604 52.464 188.852 52.7021C194.648 52.1863 199.417 52.0048 204.181 52.0048C210.463 52.0048 216.733 52.3202 225.325 52.595C250.558 53.4004 290.84 62.3362 313.193 95.6361L308.758 95.9L307.958 94.5648L301.412 97.6082C299.983 98.2718 298.615 99.0465 297.306 99.9244C296.156 100.694 294.575 101.729 292.837 102.972ZM167.729 55.6047C169.344 55.197 170.976 54.8746 172.623 54.6395C171.023 54.9242 169.387 55.2456 167.729 55.6047Z" fill="#17282F"/>
<path d="M91.1791 159.412H148.469C148.469 159.412 148.469 111.309 198.458 110.448C224.419 110.001 237.88 127.007 243.349 140.034C249.7 155.164 247.778 172.406 239.269 186.435C229.552 202.457 208.259 217.019 169.65 210.216V339.389H226.297V263.724C226.297 263.724 305.747 243.186 305.747 155.628C305.747 71.8553 230.621 52.3976 198.463 52.3976C173.872 52.3976 90.098 58.3425 91.1791 159.412Z" fill="#CCA016"/>
<path d="M226.297 339.389H169.65V210.216C176.337 211.395 182.5 211.932 188.179 211.932C215.283 211.93 231.235 199.681 239.269 186.435C244.371 178.023 247.105 168.456 247.107 158.882C247.109 152.489 245.891 146.092 243.349 140.034C238.806 129.21 228.747 115.64 210.583 111.616C207.166 110.859 203.463 110.439 199.457 110.439C199.126 110.439 198.792 110.442 198.458 110.448C148.469 111.309 148.469 159.412 148.469 159.412H91.1789C91.1719 158.77 91.1689 158.133 91.1685 157.498C91.1591 58.2671 174.027 52.3976 198.463 52.3976C222.346 52.3976 269.93 63.1318 292.837 102.972C288.043 106.4 282.058 111.416 280.663 116.845C276.272 133.948 283.711 153.045 283.711 153.045L283.801 152.975C284.333 154.416 287.022 155.538 288.72 156.052C290.102 156.469 291.543 156.589 292.991 156.589C293.785 156.589 294.582 156.553 295.372 156.51C295.546 156.501 295.721 156.491 295.896 156.48L301.859 172.457C301.859 172.457 299.864 173.672 299.781 175.754C299.705 177.629 300.602 179.849 303.354 180.793C290.098 247.226 226.297 263.724 226.297 263.724V339.389Z" fill="#CCA016"/>
<path d="M169.49 419.695H226.981V366H169.49V419.695Z" fill="#CCA016"/>
<path d="M169.49 419.695H226.981V366H169.49V419.695Z" fill="#CCA016"/>
<path d="M204.928 110.714C204.925 110.732 204.629 110.713 204.071 110.663C203.51 110.634 202.696 110.476 201.629 110.464C199.508 110.323 196.418 110.378 192.646 110.837C188.878 111.308 184.425 112.243 179.679 113.888C177.319 114.738 174.864 115.716 172.453 116.995C170.021 118.229 167.612 119.737 165.386 121.572C163.147 123.387 161.254 125.506 159.603 127.682C157.946 129.852 156.512 132.068 155.269 134.248C152.833 138.642 151.168 142.878 150.139 146.535C149.085 150.187 148.625 153.244 148.415 155.357C148.293 156.415 148.262 157.24 148.232 157.801C148.199 158.361 148.173 158.655 148.156 158.655C148.138 158.655 148.129 158.36 148.128 157.799C148.124 157.236 148.123 156.406 148.215 155.341C148.363 153.211 148.772 150.127 149.787 146.437C150.778 142.742 152.419 138.459 154.853 134.017C156.095 131.811 157.534 129.57 159.201 127.374C160.859 125.178 162.777 123.023 165.059 121.173C167.321 119.309 169.76 117.785 172.22 116.546C174.66 115.259 177.139 114.282 179.522 113.437C184.314 111.804 188.805 110.903 192.603 110.474C196.405 110.06 199.514 110.061 201.643 110.264C202.712 110.307 203.527 110.497 204.085 110.56C204.64 110.644 204.931 110.697 204.928 110.714Z" fill="#17282F"/>
<path d="M291.246 100.487C291.238 100.492 291.175 100.414 291.06 100.261C290.929 100.082 290.765 99.8549 290.558 99.5712C290.106 98.9294 289.475 98.0337 288.673 96.8959C288.259 96.3185 287.829 95.6549 287.308 94.9664C286.757 94.2978 286.159 93.5737 285.519 92.797C284.877 92.0163 284.194 91.184 283.468 90.3012C282.722 89.4362 281.852 88.593 280.984 87.6674C280.095 86.7618 279.211 85.7658 278.205 84.8145C277.178 83.885 276.107 82.9188 275.001 81.9189C274.444 81.4249 273.897 80.8962 273.303 80.4061C272.697 79.929 272.082 79.4439 271.458 78.9519C270.198 77.9827 268.948 76.9243 267.584 75.9481C262.147 72.01 255.788 68.2246 248.813 64.8618C247.047 64.0642 245.304 63.2746 243.585 62.4979C241.827 61.8154 240.094 61.1428 238.391 60.4822C236.703 59.7818 234.977 59.2838 233.308 58.7333C231.631 58.2125 230.016 57.6094 228.379 57.2275C226.755 56.8009 225.173 56.3853 223.634 55.9815C222.097 55.5738 220.568 55.3318 219.11 55.0143C217.644 54.7396 216.244 54.3755 214.867 54.2039C213.496 54.0055 212.18 53.815 210.923 53.6335C208.416 53.204 206.115 53.1187 204.108 52.9163C203.102 52.8369 202.168 52.7298 201.305 52.6891C200.444 52.6663 199.655 52.6445 198.941 52.6257C197.549 52.581 196.454 52.5463 195.669 52.5205C195.319 52.5036 195.038 52.4908 194.817 52.4798C194.625 52.4679 194.527 52.458 194.527 52.4481C194.527 52.4402 194.625 52.4322 194.816 52.4273C195.037 52.4243 195.318 52.4213 195.668 52.4163C196.455 52.4183 197.551 52.4213 198.946 52.4253C199.661 52.4302 200.453 52.4362 201.316 52.4431C202.182 52.4689 203.119 52.5622 204.128 52.6286C206.143 52.8032 208.453 52.8637 210.969 53.2714C212.233 53.4431 213.555 53.6226 214.932 53.8101C216.314 53.9728 217.72 54.3279 219.193 54.5937C220.659 54.9042 222.195 55.1373 223.739 55.5391C225.285 55.9379 226.876 56.3486 228.507 56.7682C230.15 57.1461 231.774 57.7453 233.459 58.2631C235.136 58.8116 236.87 59.3076 238.567 60.008C240.277 60.6686 242.018 61.3412 243.784 62.0237C245.511 62.8034 247.261 63.595 249.034 64.3955C256.039 67.7722 262.42 71.5874 267.865 75.5643C269.231 76.5493 270.483 77.6177 271.743 78.5987C272.366 79.0957 272.982 79.5858 273.588 80.0679C274.182 80.5638 274.727 81.0985 275.285 81.5975C276.39 82.6103 277.456 83.5884 278.482 84.5288C279.486 85.491 280.366 86.4999 281.25 87.4165C282.113 88.3539 282.976 89.209 283.716 90.0849C284.433 90.9797 285.111 91.8248 285.744 92.6154C286.374 93.4041 286.963 94.1401 287.505 94.8186C288.015 95.518 288.436 96.1915 288.836 96.7798C289.607 97.9434 290.211 98.859 290.646 99.5147C290.834 99.8103 290.985 100.046 291.105 100.233C291.205 100.396 291.254 100.482 291.246 100.487Z" fill="#17282F"/>
<path d="M285.278 223.487C285.291 223.499 285.142 223.703 284.845 224.082C284.511 224.497 284.072 225.043 283.523 225.725C282.951 226.441 282.236 227.304 281.36 228.267C280.491 229.234 279.531 230.365 278.378 231.53C277.249 232.717 276.004 234.01 274.6 235.33C273.234 236.69 271.683 238.046 270.07 239.492C266.789 242.323 263.05 245.286 258.94 248.14C254.811 250.967 250.711 253.407 246.898 255.469C244.973 256.463 243.154 257.429 241.396 258.222C239.663 259.066 238.011 259.77 236.501 260.402C235.003 261.065 233.604 261.561 232.391 262.029C231.179 262.504 230.118 262.867 229.246 263.147C228.414 263.417 227.747 263.633 227.241 263.798C226.781 263.941 226.537 264.008 226.531 263.99C226.525 263.975 226.758 263.873 227.208 263.699C227.706 263.511 228.361 263.265 229.18 262.957C230.04 262.648 231.088 262.26 232.287 261.76C233.488 261.266 234.873 260.75 236.357 260.066C237.856 259.413 239.492 258.693 241.212 257.835C242.955 257.029 244.761 256.051 246.673 255.05C250.459 252.974 254.534 250.53 258.648 247.713C262.74 244.872 266.472 241.932 269.759 239.133C271.375 237.701 272.929 236.363 274.304 235.02C275.717 233.718 276.972 232.444 278.115 231.276C279.282 230.131 280.258 229.02 281.146 228.074C282.039 227.131 282.775 226.29 283.371 225.595C283.949 224.939 284.412 224.414 284.764 224.017C285.087 223.658 285.264 223.476 285.278 223.487Z" fill="#17282F"/>
<path d="M225.296 334.891C225.152 334.891 225.037 318.958 225.037 299.307C225.037 279.649 225.152 263.719 225.296 263.719C225.438 263.719 225.554 279.649 225.554 299.307C225.554 318.958 225.438 334.891 225.296 334.891Z" fill="#17282F"/>
<path d="M227.48 416.054C227.337 416.054 227.222 404.873 227.222 391.083C227.222 377.287 227.337 366.108 227.48 366.108C227.622 366.108 227.739 377.287 227.739 391.083C227.739 404.873 227.622 416.054 227.48 416.054Z" fill="#17282F"/>
<path d="M283.876 151.797C282.876 153.794 286.583 155.405 288.72 156.052C290.859 156.699 293.141 156.631 295.372 156.51C298.329 156.35 301.392 156.075 303.962 154.607C306.247 153.301 307.95 151.145 309.14 148.798C310.33 146.452 311.053 143.902 311.769 141.371C311.769 141.371 288.333 142.905 283.876 151.797Z" fill="#CCA016"/>
<path d="M292.991 156.589C291.543 156.589 290.102 156.469 288.721 156.052C287.022 155.538 284.333 154.416 283.801 152.975L288.486 149.312C289.734 148.366 290.92 147.551 292.276 146.78L295.897 156.48C295.721 156.491 295.546 156.501 295.372 156.51C294.582 156.553 293.786 156.589 292.991 156.589Z" fill="#CCA016"/>
<path d="M350.086 145.446C353.91 148.178 358.615 149.655 363.315 149.6C365.566 149.572 367.952 149.138 369.615 147.618C370.38 146.919 370.95 146.025 371.738 145.352C372.272 144.896 372.898 144.55 373.4 144.058C373.902 143.566 374.281 142.862 374.13 142.176C373.975 141.473 373.386 140.34 372.76 139.986C370.068 138.458 366.857 138.513 363.763 138.584C360.668 138.654 357.62 139.377 354.686 140.364C352.287 141.17 349.772 142.31 348.556 144.53L350.086 145.446Z" fill="#CCA016"/>
<path d="M363.057 149.601C358.544 149.601 354.042 148.192 350.334 145.621C350.335 145.604 350.337 145.587 350.339 145.571C350.428 144.842 350.556 143.96 350.731 142.951C350.761 142.768 350.794 142.582 350.827 142.391C354.311 140.737 359.862 139.051 368.072 138.986C368.09 138.986 368.108 138.986 368.126 138.986C371.887 138.986 374.13 142.176 374.13 142.176L373.906 141.662C374.015 141.839 374.094 142.013 374.13 142.176C374.153 142.28 374.164 142.385 374.164 142.489C374.163 143.072 373.826 143.641 373.4 144.058C372.898 144.55 372.272 144.896 371.737 145.352C370.95 146.025 370.379 146.919 369.615 147.618C367.952 149.138 365.566 149.572 363.315 149.6C363.228 149.601 363.143 149.601 363.057 149.601Z" fill="#CCA016"/>
<path d="M304.332 181.055L353.783 181.703C354.217 181.709 354.529 181.287 354.396 180.873L348.596 162.78C348.596 162.78 349.451 153.738 350.631 142.858C352.425 126.347 354.809 105.586 354.841 105.641C351.463 96.1629 331.506 94.547 331.506 94.547L308.758 95.9001L307.958 94.5648L301.412 97.6082C299.983 98.2719 298.614 99.0466 297.306 99.9245C292.986 102.818 282.563 109.447 280.664 116.845C276.272 133.949 283.711 153.045 283.711 153.045L288.486 149.312C289.734 148.366 290.92 147.551 292.276 146.78L301.859 172.457C301.859 172.457 299.864 173.672 299.781 175.754C299.697 177.836 300.812 180.343 304.332 181.055Z" fill="#CCA016"/>
<path d="M321.027 151.866C320.56 151.866 320.127 151.766 319.771 151.44C319.174 150.895 319.001 150.005 319.11 149.204C319.22 148.402 319.571 147.658 319.883 146.913C322.789 139.996 322.689 132.127 325.436 125.147C326.27 133.68 327.099 142.349 325.53 150.778C324.518 151.126 323.925 151.511 322.801 151.646C322.216 151.716 321.598 151.866 321.027 151.866Z" fill="#CCA016"/>
<path d="M309.837 170.699C308.988 170.699 308.147 170.582 307.315 170.295L306.649 169.76C308.639 167.575 310.815 165.358 313.638 164.483C314.756 164.136 315.915 164.019 317.085 164.019C318.269 164.019 319.466 164.139 320.643 164.259C329.982 165.218 339.321 165.789 348.66 166.748C348.715 167.606 348.112 168.788 347.362 169.21C346.614 169.632 345.737 169.754 344.881 169.85C342.584 170.108 340.272 170.237 337.958 170.237C334.63 170.237 331.302 169.97 328.017 169.437C325.757 169.071 323.482 168.577 321.206 168.577C320.707 168.577 320.207 168.6 319.708 168.654C316.382 169.015 313.059 170.699 309.837 170.699Z" fill="#CCA016"/>
<path d="M372.703 138.908C368.66 129.818 354.426 104.66 354.426 104.66L343.4 118.481L345.974 145.613C345.974 145.613 351.795 139.115 368.072 138.986C371.866 138.955 374.13 142.176 374.13 142.176L372.703 138.908Z" fill="#CCA016"/>
<path d="M306.522 134.106C306.384 134.143 305.551 131.486 304.664 128.172C303.776 124.858 303.168 122.141 303.305 122.104C303.443 122.067 304.275 124.724 305.163 128.038C306.051 131.351 306.66 134.068 306.522 134.106Z" fill="#17282F"/>
<path d="M342.568 116.642C342.593 116.616 342.954 116.925 343.589 117.508C344.208 118.107 345.083 119 346.044 120.209C347.968 122.59 350.324 126.316 351.308 130.979C351.801 133.298 351.882 135.587 351.624 137.625C351.369 139.654 350.98 141.439 350.731 142.951C350.468 144.459 350.313 145.686 350.235 146.538C350.158 147.389 350.137 147.864 350.096 147.864C350.066 147.864 350.018 147.388 350.035 146.526C350.052 145.664 350.152 144.417 350.37 142.894C350.574 141.371 350.926 139.57 351.152 137.569C351.377 135.578 351.285 133.352 350.803 131.088C349.843 126.534 347.586 122.845 345.755 120.433C343.922 117.988 342.492 116.718 342.568 116.642Z" fill="#17282F"/>
<path d="M332.472 178.893C332.481 178.928 332.098 179.037 331.396 179.206C331.045 179.296 330.614 179.391 330.105 179.457C329.596 179.527 329.02 179.638 328.374 179.667C327.085 179.791 325.538 179.788 323.832 179.642C322.128 179.464 320.268 179.124 318.375 178.549C316.487 177.951 314.761 177.176 313.257 176.359C311.768 175.512 310.491 174.639 309.5 173.807C308.983 173.417 308.57 172.999 308.191 172.653C307.808 172.311 307.508 171.988 307.27 171.715C306.786 171.179 306.533 170.872 306.56 170.848C306.634 170.777 307.699 171.967 309.725 173.52C310.732 174.304 312.009 175.132 313.484 175.941C314.976 176.722 316.675 177.468 318.528 178.056C320.387 178.62 322.21 178.967 323.881 179.168C325.555 179.338 327.075 179.379 328.349 179.302C330.899 179.17 332.451 178.792 332.472 178.893Z" fill="#17282F"/>
<path d="M347.743 173.236C347.804 173.223 347.997 173.764 348.125 174.683C348.243 175.597 348.268 176.915 347.858 178.299C347.466 179.69 346.638 180.78 345.915 181.371C345.19 181.974 344.634 182.166 344.609 182.115C344.565 182.042 345.047 181.739 345.667 181.104C346.286 180.477 346.994 179.452 347.363 178.151C348.114 175.53 347.549 173.247 347.743 173.236Z" fill="#17282F"/>
<path d="M345.054 176.731C345.183 176.699 345.446 178.147 344.803 179.782C344.176 181.424 343.006 182.315 342.931 182.206C342.82 182.097 343.747 181.11 344.321 179.596C344.919 178.089 344.9 176.736 345.054 176.731Z" fill="#17282F"/>
<path d="M336.2 144.09C336.305 144.196 335.388 145.232 334.436 146.628C333.475 148.02 332.839 149.247 332.701 149.188C332.574 149.139 333.016 147.778 334.01 146.336C334.997 144.89 336.109 143.989 336.2 144.09Z" fill="#17282F"/>
<path d="M302.261 120.066C302.207 120.13 301.422 119.496 300.068 118.612C298.716 117.728 296.762 116.634 294.456 115.769C292.147 114.911 289.954 114.456 288.353 114.239C286.751 114.02 285.744 113.984 285.745 113.9C285.743 113.842 286.756 113.747 288.393 113.877C290.027 114.003 292.281 114.409 294.637 115.285C296.989 116.167 298.96 117.337 300.276 118.312C301.597 119.287 302.301 120.023 302.261 120.066Z" fill="#17282F"/>
<path d="M354.431 104.331C354.528 104.467 351.852 106.1 349.42 109.02C346.957 111.916 345.804 114.83 345.653 114.758C345.595 114.737 345.806 113.981 346.344 112.835C346.879 111.69 347.778 110.172 349.024 108.688C350.274 107.208 351.617 106.063 352.653 105.34C353.69 104.613 354.4 104.277 354.431 104.331Z" fill="#17282F"/>
<path d="M334.01 96.1569C334.026 96.1489 334.103 96.3067 334.233 96.6152C334.38 96.9187 334.531 97.3879 334.696 98.0059C335.008 99.237 335.178 101.133 334.677 103.379C334.161 105.597 332.923 108.181 330.63 110.214C328.356 112.263 325.009 113.477 321.503 113.465C317.989 113.441 314.692 112.24 312.288 110.386C309.854 108.555 308.244 106.266 307.217 104.24C306.208 102.188 305.739 100.386 305.529 99.1348C305.426 98.5069 305.365 98.0178 305.35 97.6835C305.326 97.3502 305.323 97.1756 305.341 97.1736C305.393 97.1687 305.453 97.8661 305.726 99.0961C305.994 100.321 306.512 102.081 307.542 104.072C308.591 106.039 310.195 108.248 312.573 110.003C314.917 111.78 318.105 112.924 321.505 112.948C324.896 112.959 328.119 111.801 330.317 109.856C332.538 107.922 333.775 105.438 334.322 103.292C334.854 101.121 334.747 99.2707 334.499 98.0486C334.254 96.8175 333.949 96.1787 334.01 96.1569Z" fill="#17282F"/>
<path d="M332.702 149.364C332.73 149.289 332.757 149.216 332.785 149.143C333.019 148.908 333.607 147.829 334.436 146.628C335.001 145.8 335.554 145.098 335.887 144.642C335.946 144.602 336.007 144.567 336.072 144.536C336.222 144.462 336.394 144.418 336.563 144.418C336.706 144.418 336.846 144.45 336.97 144.521C337.4 144.768 337.464 145.351 337.48 145.848C337.512 146.873 337.533 147.92 337.565 148.945L332.702 149.364Z" fill="#17282F"/>
<path d="M332.785 149.143C333.388 147.587 334.206 146.372 335.353 145.128C335.516 144.951 335.689 144.776 335.887 144.642C335.554 145.098 335.001 145.8 334.436 146.628C333.607 147.829 333.019 148.908 332.785 149.143Z" fill="#0F191D"/>
<path d="M350.834 142.35C351.078 140.973 351.402 139.392 351.624 137.625C351.882 135.587 351.802 133.298 351.309 130.979C351.168 130.312 350.998 129.663 350.807 129.034C352.207 131.011 353.301 133.227 353.622 135.618C353.97 138.221 352.174 139.893 350.834 142.35Z" fill="#17282F"/>
<path d="M350.312 143.523C351.49 138.822 352.192 134.949 350.096 128.084C350.34 128.394 350.578 128.711 350.807 129.034C350.998 129.663 351.168 130.312 351.309 130.979C351.802 133.298 351.882 135.587 351.624 137.625C351.402 139.391 351.078 140.973 350.834 142.35C350.743 142.518 350.653 142.69 350.567 142.865L350.312 143.523Z" fill="#0F191D"/>
<path d="M343.909 366.215L340.942 410.71L321.598 410.481L318.551 364.223L343.909 366.215Z" fill="#F8A58D"/>
<path d="M341.494 404.852L341.498 406.139C341.498 406.139 363.304 414.915 363.532 419.054L320.223 418.8L320.896 404.392C327.318 407.411 334.055 407.786 341.494 404.852Z" fill="#CCA016"/>
<path d="M325.254 409.024C324.416 409.25 323.831 410.188 324.02 411.036C324.211 411.884 325.16 412.487 326.003 412.278C326.846 412.069 327.582 410.963 327.3 410.14C327.016 409.319 325.862 408.673 325.093 409.078" fill="#17282F"/>
<path d="M320.223 418.8L320.385 415.334L361.835 416.846C361.835 416.846 363.759 417.697 363.532 419.054L320.223 418.8Z" fill="#17282F"/>
<path d="M341.65 406.26C341.642 406.473 340.582 406.562 339.539 407.236C338.476 407.882 337.936 408.796 337.74 408.711C337.546 408.668 337.868 407.406 339.148 406.613C340.419 405.807 341.697 406.067 341.65 406.26Z" fill="#17282F"/>
<path d="M346.181 408.166C346.229 408.372 345.31 408.727 344.587 409.616C343.837 410.485 343.649 411.452 343.439 411.441C343.24 411.473 343.102 410.233 344.022 409.144C344.932 408.046 346.177 407.965 346.181 408.166Z" fill="#17282F"/>
<path d="M348.729 413.618C348.536 413.662 348.248 412.605 348.799 411.45C349.341 410.29 350.34 409.84 350.428 410.015C350.547 410.19 349.901 410.808 349.465 411.763C349.005 412.708 348.939 413.599 348.729 413.618Z" fill="#17282F"/>
<path d="M340.381 40.839C341.497 38.0575 340.145 34.6936 337.73 32.917C335.315 31.1414 332.097 30.7585 329.136 31.2277C326.176 31.6959 323.399 32.9319 320.662 34.155C318.18 31.6602 314.257 30.7168 310.912 31.809C307.568 32.9011 304.957 35.9783 304.427 39.4572C302.295 38.9165 299.89 39.6446 298.418 41.2774C296.944 42.9102 296.467 45.3763 297.224 47.4416L310.631 52.1516L325.276 77.9104C329.556 81.5648 336.559 81.4656 340.735 77.6921C344.911 73.9186 345.718 66.9619 342.516 62.3343C343.343 61.6101 344.022 60.7382 344.572 59.7898C346.894 58.3554 348.711 56.1165 349.311 53.4431C350.585 47.7799 346.146 41.5145 340.381 40.839Z" fill="#17282F"/>
<path d="M331.506 94.547C330.672 90.3538 330.092 87.4821 330.101 87.5118C330.101 87.5118 338.007 84.4337 337.461 73.3899C337.192 67.8983 335.096 59.2393 333.152 52.2101C331.403 45.8843 325.505 38.9086 319.258 40.9244L300.367 50.1508C298.47 50.7638 298.137 52.5464 298.586 54.4897L298.616 55.437L305.966 85.8483L309.072 99.4414C310.446 105.225 316.006 109.003 321.889 108.151C328.399 107.208 332.786 100.999 331.506 94.547Z" fill="#FFD592"/>
<path d="M333.027 59.5568C333.205 60.276 332.743 61.018 331.996 61.2174C331.251 61.4157 330.501 60.9971 330.324 60.2779C330.147 59.5598 330.609 58.8158 331.354 58.6174C332.101 58.418 332.851 58.8386 333.027 59.5568Z" fill="#17282F"/>
<path d="M332.213 57.4447C332.081 57.659 330.881 57.1095 329.408 57.4219C327.931 57.7146 327.007 58.6996 326.81 58.5528C326.713 58.4893 326.819 58.1302 327.218 57.6888C327.61 57.2493 328.332 56.7514 329.252 56.5619C330.171 56.3744 331.016 56.55 331.532 56.8039C332.059 57.0569 332.279 57.3475 332.213 57.4447Z" fill="#17282F"/>
<path d="M318.674 62.8481C318.851 63.5663 318.389 64.3093 317.643 64.5077C316.898 64.7061 316.148 64.2865 315.97 63.5683C315.793 62.8501 316.255 62.1071 317 61.9077C317.747 61.7083 318.497 62.1299 318.674 62.8481Z" fill="#17282F"/>
<path d="M317.951 60.9415C317.817 61.1568 316.617 60.6062 315.144 60.9187C313.668 61.2113 312.744 62.1974 312.546 62.0496C312.451 61.9861 312.555 61.628 312.956 61.1856C313.347 60.7461 314.07 60.2481 314.989 60.0587C315.909 59.8722 316.752 60.0477 317.27 60.3007C317.794 60.5537 318.017 60.8443 317.951 60.9415Z" fill="#17282F"/>
<path d="M325.42 70.2722C325.396 70.1898 326.28 69.8397 327.726 69.3377C328.094 69.2197 328.434 69.0699 328.444 68.8001C328.475 68.5094 328.233 68.1364 327.958 67.7367C327.413 66.8994 326.842 66.0215 326.243 65.102C323.84 61.3434 322.016 58.2206 322.168 58.1254C322.32 58.0301 324.392 60.9982 326.795 64.7578C327.378 65.6863 327.935 66.5711 328.467 67.4192C328.699 67.817 329.046 68.2505 328.972 68.8566C328.929 69.1592 328.696 69.4211 328.469 69.5371C328.243 69.6611 328.032 69.7097 327.848 69.7593C326.369 70.1541 325.444 70.3555 325.42 70.2722Z" fill="#17282F"/>
<path d="M330.101 87.5118C330.101 87.5118 323.008 89.4838 314.987 86.6963C314.987 86.6963 320.18 93.4825 330.666 90.2387L330.101 87.5118Z" fill="#FFD592"/>
<path d="M318.229 58.8396C318.132 59.2642 316.614 59.2532 314.885 59.6788C313.147 60.0696 311.795 60.7561 311.518 60.4188C311.392 60.2571 311.593 59.8455 312.116 59.3812C312.636 58.9189 313.495 58.4348 314.535 58.1888C315.574 57.9448 316.559 57.9954 317.23 58.1769C317.907 58.3585 318.27 58.6392 318.229 58.8396Z" fill="#17282F"/>
<path d="M331.654 52.7547C331.416 53.1535 330.142 53.0582 328.692 53.3449C327.235 53.589 326.071 54.1296 325.715 53.8389C325.556 53.6941 325.679 53.3181 326.147 52.8896C326.608 52.4621 327.436 52.0196 328.434 51.8361C329.432 51.6546 330.357 51.7776 330.931 52.0157C331.515 52.2527 331.755 52.5623 331.654 52.7547Z" fill="#17282F"/>
<path d="M305.015 43.0452C305.45 45.1869 306.878 47.1064 308.804 48.139C310.731 49.1727 313.118 49.3006 315.144 48.4783C316.715 47.8404 318.335 46.6441 319.929 47.2204C321.607 47.8275 322.133 50.0565 323.689 50.9285C325.913 52.1734 328.593 50.0158 331.133 50.2291C333.095 50.3938 334.616 51.9205 336.151 53.1515C337.688 54.3836 339.819 55.4142 341.552 54.4827C341.09 52.846 340.622 51.1923 339.797 49.7044C338.972 48.2164 337.747 46.8871 336.163 46.2681C335.295 45.9289 334.344 45.8098 333.514 45.3833C331.724 44.4637 330.921 42.3816 329.616 40.8499C327.933 38.8739 325.249 37.7986 322.668 38.0644C320.519 38.2866 318.483 39.3669 316.325 39.2756C314.731 39.2082 313.203 38.4989 311.608 38.5257C308.499 38.5783 306.165 41.3003 304.439 43.8864" fill="#17282F"/>
<path d="M315.467 45.3158C314.047 45.2097 311.124 44.9111 310.164 43.8983C308.079 41.6971 304.968 40.5434 302.186 41.2814C299.407 42.0185 297.167 44.799 297.208 47.889C293.809 48.6211 290.932 51.4483 289.966 55.0035C289 58.5588 289.985 62.6993 292.444 65.4233C293.089 66.1375 294.073 67.7812 294.073 67.7812C294.073 67.7812 292.797 69.3734 292.307 70.4576C290.041 75.4761 296.194 77.3985 296.194 77.3985C296.211 80.7723 299.32 80.7564 301.316 80.7465C303.234 80.7365 304.414 86.0555 305.966 85.8482L304.39 69.42C304.581 69.4954 304.816 69.546 305.117 69.5509C308.877 69.6184 307.895 62.5049 306.678 60.6638C307.738 59.2413 308.809 57.7979 309.496 56.1255C310.184 54.454 310.227 50.2757 309.643 48.5209C310.953 48.3275 316.091 45.3624 315.467 45.3158Z" fill="#17282F"/>
<path d="M304.951 70.2899C304.366 68.0381 301.573 67.0342 299.837 68.5837C298.884 69.4338 298.317 70.8633 298.918 73.258C300.52 79.6443 306.6 76.719 306.565 76.5325C306.543 76.4174 305.637 72.9256 304.951 70.2899Z" fill="#FFD592"/>
<path d="M304.008 74.6032C303.974 74.5893 303.917 74.7093 303.75 74.8422C303.588 74.9712 303.287 75.1091 302.923 75.0674C302.186 74.989 301.349 74.0606 301.029 72.9178C300.867 72.3405 300.85 71.7562 300.942 71.2463C301.019 70.7305 301.239 70.3287 301.564 70.1829C301.882 70.0202 302.174 70.163 302.297 70.3228C302.428 70.4805 302.419 70.6174 302.455 70.6203C302.477 70.6313 302.565 70.4795 302.447 70.2285C302.39 70.1085 302.277 69.9756 302.096 69.8913C301.912 69.805 301.671 69.798 301.44 69.8833C300.956 70.04 300.627 70.6045 300.527 71.164C300.4 71.7334 300.406 72.393 300.587 73.0408C300.951 74.3175 301.912 75.3561 302.902 75.3918C303.381 75.3958 303.721 75.1666 303.877 74.9672C304.036 74.7599 304.033 74.6091 304.008 74.6032Z" fill="#F68260"/>
<path d="M339.204 61.37C339.165 61.3214 339.782 60.9236 340.596 59.9267C341.395 58.9387 342.365 57.2563 342.59 54.9668C342.699 53.8349 342.645 52.5603 342.235 51.2875C341.825 50.0228 341.094 48.751 339.966 47.764C337.766 45.7622 334.119 44.8357 330.849 45.9884C330.549 46.0846 330.274 46.2344 329.991 46.3504C329.719 46.4923 329.463 46.652 329.211 46.7939L328.817 47.0151L328.811 46.5776C328.802 45.8088 328.513 45.0648 328.01 44.4935C327.511 43.9191 326.864 43.4826 326.178 43.184C324.784 42.571 323.287 42.5611 321.919 42.8725C319.18 43.4945 316.858 44.7464 314.666 44.9984C312.492 45.2751 310.689 44.7355 309.717 44.0034C309.215 43.6532 308.933 43.2634 308.746 43.0114C308.587 42.7366 308.511 42.5908 308.526 42.5829C308.578 42.5402 308.846 43.192 309.827 43.8457C310.787 44.4964 312.526 44.9607 314.618 44.6492C315.658 44.4954 316.767 44.1244 317.948 43.687C319.132 43.2545 320.398 42.7356 321.821 42.4182C322.532 42.2664 323.279 42.1543 324.063 42.194C324.84 42.2347 325.625 42.4113 326.374 42.7257C327.119 43.0452 327.83 43.5154 328.396 44.1621C328.967 44.8029 329.319 45.6809 329.327 46.5796L328.927 46.3633C329.197 46.2096 329.47 46.0399 329.76 45.8892C330.06 45.7632 330.356 45.6055 330.673 45.5023C334.153 44.2812 337.968 45.2751 340.286 47.4109C341.47 48.4653 342.235 49.8283 342.645 51.1616C343.056 52.5057 343.091 53.835 342.953 55.0065C342.671 57.3773 341.615 59.0855 340.75 60.0567C340.312 60.5467 339.928 60.8889 339.644 61.0834C339.365 61.2857 339.214 61.3839 339.204 61.37Z" fill="#33535F"/>
<path d="M337.906 38.9454C337.869 39.0168 337.227 38.4424 335.851 38.2391C335.172 38.1508 334.314 38.1548 333.409 38.4613C332.506 38.741 331.552 39.3392 330.896 40.2885L330.653 40.6387L330.503 40.2419C329.7 38.1022 327.356 36.0676 324.453 35.7492C322.27 35.4982 320.286 36.4803 318.635 37.4296C316.973 38.4028 315.454 39.355 314.025 39.8153C312.61 40.3123 311.359 40.3669 310.534 40.226C310.121 40.1536 309.81 40.0564 309.609 39.9711C309.407 39.8838 309.306 39.8302 309.312 39.8143C309.329 39.7677 309.754 39.9453 310.56 40.0256C311.361 40.101 312.548 39.9949 313.901 39.4711C315.27 38.9831 316.722 38.0298 318.396 37.0179C319.239 36.5249 320.148 36.019 321.175 35.6619C322.193 35.2949 323.347 35.1113 324.506 35.2344C327.625 35.5786 330.097 37.7719 330.919 40.0822L330.528 40.0355C331.276 38.9979 332.329 38.3819 333.302 38.1111C334.278 37.8165 335.187 37.8512 335.893 37.9821C336.605 38.122 337.122 38.375 337.449 38.5763C337.769 38.7896 337.918 38.9295 337.906 38.9454Z" fill="#33535F"/>
<path d="M324.848 73.2044C324.399 72.7699 323.726 72.628 323.105 72.6984C322.522 72.7649 321.805 73.2867 321.435 73.9186L321.409 73.9563L321.355 74.0376L321.378 74.0218C321.243 74.2459 321.163 74.5098 321.192 74.7697C321.254 75.356 321.7 75.848 322.229 76.1119C323.065 76.5305 324.176 76.4095 324.827 75.7349C325.477 75.0604 325.523 73.8551 324.848 73.2044Z" fill="#CCA016"/>
<path d="M325.345 76.2905C325.267 76.3054 325.17 75.9959 324.906 75.5802C324.648 75.1666 324.186 74.6478 323.525 74.3452C322.863 74.0456 322.167 74.0377 321.687 74.1161C321.199 74.1895 320.903 74.3204 320.864 74.252C320.828 74.2004 321.071 73.9435 321.599 73.7609C322.114 73.5774 322.939 73.5129 323.739 73.875C324.537 74.2401 325.031 74.9047 325.231 75.4136C325.44 75.9314 325.407 76.2826 325.345 76.2905Z" fill="#17282F"/>
<path d="M305.097 77.5166C305.146 77.4858 305.381 78.0136 305.009 78.7655C304.823 79.1216 304.482 79.5164 303.951 79.7217C303.422 79.934 302.743 79.8547 302.202 79.5134C301.661 79.1732 301.296 78.5959 301.258 78.0255C301.213 77.459 301.422 76.9799 301.664 76.6585C302.182 75.9978 302.759 75.983 302.751 76.0395C302.785 76.1179 302.315 76.2647 301.967 76.8618C301.801 77.1535 301.674 77.5543 301.731 77.9739C301.781 78.3905 302.059 78.8091 302.477 79.076C302.899 79.3378 303.397 79.4083 303.794 79.2724C304.197 79.1424 304.503 78.8557 304.694 78.58C305.081 78.0066 305.012 77.5205 305.097 77.5166Z" fill="#CCA016"/>
<path d="M301.748 77.1347C301.804 77.1605 301.718 77.473 301.286 77.6843C301.076 77.7815 300.784 77.843 300.463 77.7646C300.138 77.6892 299.828 77.4482 299.651 77.1198C299.473 76.7915 299.44 76.4006 299.555 76.0872C299.664 75.7757 299.876 75.5644 300.074 75.4414C300.486 75.1954 300.794 75.2956 300.785 75.3561C300.791 75.4325 300.542 75.484 300.295 75.7311C300.042 75.9701 299.856 76.4324 300.105 76.8738C300.339 77.3242 300.827 77.4204 301.165 77.34C301.507 77.2686 301.687 77.0881 301.748 77.1347Z" fill="#CCA016"/>
<path d="M312.657 165.235C312.657 165.235 337.217 166.658 351.735 166.792C362.981 166.896 367.992 163.908 370.24 156.684C372.128 150.618 368.072 138.986 368.072 138.986C360.468 139.023 355.776 140.072 350.882 142.365L352.186 147.684L312.586 151.099L312.657 165.235Z" fill="#FFD592"/>
<path d="M360.442 153.359C360.306 153.451 359.151 151.299 356.735 149.679C354.343 148.021 351.918 147.733 351.954 147.572C351.96 147.512 352.57 147.497 353.53 147.71C354.486 147.92 355.779 148.406 357.026 149.253C358.269 150.103 359.194 151.129 359.738 151.942C360.288 152.757 360.496 153.331 360.442 153.359Z" fill="#F68260"/>
<path d="M303.664 142.33C303.664 142.33 296.066 144.151 290.488 147.882L296.421 164.014C298.402 169.309 304.473 171.911 309.281 169.164C316.752 164.896 319.385 152.435 319.385 152.435L327.595 116.845L313.996 108.324L303.664 142.33Z" fill="#FFD592"/>
<path d="M313.996 108.324L314.545 96.6182L311.508 84.763C311.34 84.1063 311.256 83.287 311.788 82.8872C312.344 82.4696 313.177 82.4904 313.622 82.9457C314.453 83.7948 318.419 94.2077 318.419 94.2077C318.419 94.2077 324.437 90.5909 325.511 90.4143C326.585 90.2388 327.925 93.4766 328.009 93.7325C328.093 93.9885 328.019 95.9089 328.019 95.9089C328.019 95.9089 331.741 96.019 332.074 96.5299C332.407 97.0408 332.504 99.6884 332.504 99.6884C332.504 99.6884 334.078 100.192 334.332 101.387C334.586 102.581 335.092 104.543 334.35 104.974C333.608 105.404 332.04 106.265 332.04 106.265C332.04 106.265 331.409 112.339 331.247 112.892C331.084 113.444 327.595 116.845 327.595 116.845L313.996 108.324Z" fill="#FFD592"/>
<path d="M301.347 169.409C301.362 169.376 301.717 169.62 302.486 169.87C303.248 170.125 304.453 170.356 305.993 170.147C307.515 169.942 309.392 169.273 311.071 167.806C312.724 166.309 314.399 164.325 315.79 161.83C316.483 160.583 317.105 159.212 317.628 157.732C318.163 156.254 318.512 154.651 318.9 152.977C319.679 149.634 320.518 146.035 321.409 142.211C323.2 134.557 325.201 126.003 327.357 116.789L327.373 116.72L327.425 116.67C328.107 115.999 328.794 115.31 329.473 114.602C329.812 114.247 330.15 113.887 330.474 113.517C330.632 113.333 330.798 113.142 330.924 112.957C331.04 112.837 331.044 112.598 331.091 112.344C331.36 110.358 331.569 108.307 331.788 106.24L331.803 106.108L331.918 106.044C332.539 105.696 333.17 105.343 333.809 104.984C333.954 104.898 334.166 104.795 334.255 104.724C334.334 104.66 334.404 104.548 334.433 104.391C334.506 104.089 334.482 103.72 334.445 103.364C334.355 102.665 334.191 101.853 334.005 101.207C333.757 100.605 333.077 100.171 332.426 99.9323L332.254 99.8698L332.247 99.6972C332.223 99.1219 332.184 98.5306 332.119 97.9424C332.086 97.6488 332.048 97.3532 331.987 97.0715C331.956 96.9385 331.918 96.7858 331.874 96.7044L331.812 96.6459L331.645 96.5765C330.542 96.2729 329.243 96.2273 328.013 96.1668L327.754 96.1539L327.762 95.8989C327.78 95.2859 327.806 94.6034 327.778 93.9606C327.795 93.791 327.64 93.534 327.548 93.296C327.44 93.0569 327.326 92.8208 327.206 92.5877C326.966 92.1254 326.704 91.6741 326.396 91.2783C326.241 91.0848 326.072 90.8964 325.892 90.7833C325.69 90.6623 325.604 90.6345 325.364 90.7228C324.903 90.8855 324.427 91.1335 323.965 91.3636C322.113 92.3278 320.315 93.3793 318.551 94.4268L318.292 94.5806L318.181 94.3028C317.243 91.9538 316.317 89.6336 315.404 87.348C314.947 86.2053 314.495 85.0695 314.046 83.9446C313.881 83.3752 313.483 83.0537 312.955 82.9238C312.431 82.7889 311.91 82.9516 311.664 83.397C311.54 83.6073 311.486 83.8602 311.513 84.1033C311.542 84.3245 311.651 84.6588 311.716 84.9296C311.866 85.502 312.016 86.0723 312.165 86.6388C312.463 87.7726 312.758 88.8965 313.051 90.0095C313.635 92.2365 314.209 94.4209 314.77 96.5586L314.78 96.5933L314.778 96.629C314.58 100.702 314.391 104.612 314.211 108.333L314.209 108.361L314.201 108.386C310.453 120.584 307.344 130.702 305.163 137.793C304.069 141.307 303.209 144.071 302.614 145.978C302.318 146.903 302.09 147.618 301.929 148.125C301.77 148.609 301.672 148.855 301.672 148.855C301.672 148.855 301.727 148.596 301.864 148.106C302.013 147.594 302.221 146.872 302.49 145.94C303.057 144.024 303.881 141.25 304.927 137.721C307.064 130.617 310.114 120.481 313.791 108.261L313.781 108.314C313.95 104.591 314.128 100.681 314.312 96.6072L314.319 96.6776C313.753 94.5409 313.175 92.3575 312.584 90.1325C312.29 89.0205 311.992 87.8966 311.692 86.7638C311.542 86.1963 311.392 85.6279 311.239 85.0556C311.169 84.752 311.079 84.5229 311.023 84.1568C310.985 83.8096 311.059 83.4505 311.236 83.147C311.416 82.8415 311.692 82.5954 312.041 82.4705C312.388 82.3564 312.735 82.3663 313.066 82.4387C313.394 82.5171 313.715 82.6639 313.974 82.901C314.24 83.1192 314.42 83.4952 314.509 83.7571C314.959 84.882 315.414 86.0168 315.872 87.1596C316.787 89.4451 317.716 91.7634 318.656 94.1134L318.287 93.9884C320.06 92.9339 321.856 91.8814 323.73 90.9053C324.209 90.6682 324.667 90.4232 325.202 90.2327C325.347 90.1911 325.491 90.1385 325.701 90.1623C325.882 90.1881 326.049 90.2615 326.172 90.3508C326.438 90.5224 326.624 90.7396 326.801 90.9579C327.144 91.3983 327.416 91.8705 327.666 92.3516C327.79 92.5927 327.908 92.8367 328.018 93.0847C328.11 93.3406 328.276 93.5499 328.293 93.9259C328.324 94.6292 328.296 95.2899 328.278 95.9178L328.028 95.6499C329.303 95.7194 330.539 95.7412 331.816 96.0894L332.071 96.2005L332.327 96.4604C332.424 96.6508 332.45 96.8006 332.491 96.9623C332.558 97.2768 332.597 97.5813 332.631 97.8859C332.697 98.494 332.736 99.0872 332.761 99.6784L332.583 99.4433C333.35 99.7339 334.109 100.179 334.478 101.011C334.718 101.828 334.844 102.516 334.954 103.306C334.99 103.694 335.027 104.087 334.929 104.511C334.887 104.718 334.778 104.959 334.569 105.125C334.363 105.275 334.233 105.322 334.063 105.425C333.421 105.785 332.786 106.139 332.162 106.488L332.293 106.292C332.069 108.365 331.86 110.407 331.584 112.417L331.521 112.802C331.511 112.92 331.418 113.14 331.338 113.234C331.18 113.464 331.015 113.648 330.849 113.844C330.515 114.224 330.172 114.586 329.831 114.944C329.144 115.657 328.455 116.347 327.767 117.02L327.833 116.901C325.652 126.109 323.626 134.658 321.814 142.305C320.905 146.126 320.049 149.721 319.255 153.06C318.859 154.724 318.496 156.35 317.943 157.843C317.405 159.339 316.766 160.722 316.055 161.979C314.627 164.494 312.918 166.484 311.226 167.983C309.488 169.47 307.569 170.123 306.015 170.308C304.442 170.496 303.22 170.233 302.46 169.948C302.075 169.807 301.796 169.675 301.616 169.567C301.435 169.467 301.343 169.415 301.347 169.409Z" fill="#F8A58D"/>
<path d="M328.018 95.8891C328.015 95.9615 327.682 95.9992 327.159 96.024C326.637 96.0528 325.919 96.0686 325.182 96.2581C324.45 96.4476 323.854 96.8146 323.499 97.1568C323.136 97.4951 322.977 97.7828 322.904 97.752C322.846 97.7332 322.886 97.3711 323.225 96.9138C323.557 96.4565 324.218 95.9714 325.052 95.7581C325.882 95.5469 326.645 95.5955 327.173 95.6589C327.703 95.7274 328.022 95.8186 328.018 95.8891Z" fill="#F8A58D"/>
<path d="M325.108 95.9972C324.974 95.9466 324.965 95.64 325.088 95.3127C325.21 94.9843 325.419 94.7592 325.553 94.8098C325.687 94.8594 325.696 95.1659 325.573 95.4942C325.45 95.8226 325.242 96.0478 325.108 95.9972Z" fill="#F8A58D"/>
<path d="M332.666 99.6001C332.664 99.7499 331.338 99.9037 329.722 100.007C328.924 100.078 328.321 100.366 328.084 100.795C327.821 101.201 327.91 101.537 327.834 101.559C327.786 101.604 327.518 101.224 327.758 100.632C327.869 100.351 328.112 100.042 328.467 99.8442C328.816 99.6418 329.24 99.5446 329.661 99.494C331.327 99.3859 332.67 99.4642 332.666 99.6001Z" fill="#F8A58D"/>
<path d="M332.005 103.168C332.148 103.175 332.231 103.908 332.19 104.806C332.149 105.705 332.001 106.427 331.859 106.421C331.716 106.415 331.634 105.682 331.673 104.783C331.714 103.885 331.862 103.161 332.005 103.168Z" fill="#F8A58D"/>
<path d="M336.128 129.886L337.01 126.845C337.188 126.235 337.956 126.041 338.401 126.495L339.552 127.669L340.271 124.809C340.46 124.055 341.49 123.952 341.825 124.653L343.449 128.039L336.128 129.886Z" fill="white"/>
<path d="M343.465 129.342C343.5 129.48 341.93 129.988 339.962 130.475C337.992 130.963 336.368 131.245 336.334 131.107C336.3 130.969 337.868 130.462 339.838 129.974C341.806 129.486 343.431 129.203 343.465 129.342Z" fill="white"/>
<path d="M284.474 112.384C284.498 112.405 284.105 112.766 283.592 113.563C283.084 114.359 282.521 115.635 282.248 117.309C281.956 118.98 281.942 121.01 282.069 123.252C282.178 125.497 282.36 127.962 282.634 130.541C283.178 135.702 284.015 140.332 284.728 143.656C285.08 145.32 285.398 146.659 285.617 147.583C285.717 147.995 285.8 148.345 285.873 148.649C285.93 148.894 285.949 149.024 285.949 149.024C285.949 149.024 285.902 148.901 285.833 148.66C285.749 148.359 285.652 148.011 285.539 147.603C285.296 146.684 284.956 145.348 284.585 143.688C283.835 140.367 282.973 135.733 282.428 130.563C282.153 127.98 281.977 125.51 281.879 123.261C281.764 121.015 281.79 118.968 282.103 117.283C282.399 115.595 282.99 114.309 283.525 113.519C284.064 112.727 284.474 112.384 284.474 112.384Z" fill="white"/>
<path d="M305.349 98.8978C305.352 98.9047 305.276 98.9464 305.126 99.0198C304.925 99.116 304.709 99.2182 304.471 99.3322C303.904 99.6021 303.084 100.001 302.1 100.545C300.117 101.612 297.476 103.258 294.646 105.204C291.813 107.151 289.303 108.991 287.47 110.302C286.626 110.899 285.901 111.412 285.291 111.844C285.073 111.992 284.877 112.127 284.692 112.253C284.553 112.344 284.479 112.39 284.474 112.384C284.47 112.379 284.536 112.321 284.667 112.219C284.845 112.083 285.034 111.938 285.244 111.78C285.844 111.332 286.556 110.802 287.383 110.184C289.195 108.843 291.692 106.984 294.529 105.033C297.364 103.084 300.025 101.452 302.031 100.416C303.027 99.8878 303.859 99.5068 304.438 99.2588C304.682 99.1577 304.904 99.0674 305.11 98.9811C305.265 98.9206 305.347 98.8908 305.349 98.8978Z" fill="white"/>
<path d="M352.658 105.352C352.653 105.356 352.596 105.312 352.492 105.226C352.35 105.103 352.202 104.976 352.046 104.839C351.656 104.507 351.074 104.045 350.309 103.543C348.793 102.514 346.529 101.355 343.931 100.315C341.33 99.2767 338.901 98.5386 337.132 98.0535C336.247 97.8085 335.527 97.627 335.028 97.504C334.827 97.4534 334.637 97.4048 334.456 97.3582C334.325 97.3224 334.257 97.3006 334.258 97.2937C334.259 97.2867 334.331 97.2947 334.464 97.3175C334.649 97.3522 334.841 97.3879 335.046 97.4256C335.55 97.5248 336.278 97.6845 337.169 97.9127C338.952 98.362 341.398 99.0812 344.008 100.124C346.616 101.167 348.885 102.356 350.39 103.422C351.911 104.473 352.658 105.352 352.658 105.352Z" fill="white"/>
<path d="M305.63 181.072C305.625 181.083 305.486 181.041 305.243 180.939C305.001 180.836 304.658 180.668 304.259 180.412C303.48 179.919 302.42 178.951 302.101 177.491C301.773 176.059 302.082 174.708 302.485 173.861C302.686 173.43 302.897 173.109 303.06 172.902C303.222 172.693 303.326 172.591 303.336 172.599C303.37 172.623 302.977 173.063 302.62 173.919C302.26 174.761 301.987 176.068 302.304 177.444C302.604 178.832 303.595 179.774 304.341 180.291C305.103 180.821 305.648 181.036 305.63 181.072Z" fill="white"/>
<path d="M302.473 170.33C302.528 170.315 302.739 170.873 302.944 171.576C303.151 172.281 303.273 172.864 303.217 172.88C303.164 172.896 302.952 172.338 302.746 171.634C302.541 170.931 302.419 170.347 302.473 170.33Z" fill="white"/>
<path d="M315.885 392.739L346.144 392.587L345.595 287.975L345.313 181.565L304.332 181.055L296.965 194.946C293.993 200.549 291.972 206.639 291.297 212.946C290.781 217.753 294.383 233.431 295.641 237.42L306.921 273.192L315.885 392.739Z" fill="#17282F"/>
<path d="M354.191 181.708L387.44 272.346C391.343 284.493 390.039 296.537 383.341 307.759L344.738 383.106L323.034 355.951L355.333 288.455L326.859 242.323L331.651 181.804L345.062 181.588L354.191 181.708Z" fill="#17282F"/>
<path d="M342.549 212.073C342.549 212.073 342.574 212.23 342.597 212.537C342.617 212.868 342.647 213.321 342.682 213.903C342.748 215.129 342.842 216.895 342.963 219.158C343.185 223.747 343.504 230.343 343.897 238.488C344.274 246.658 344.72 256.373 345.217 267.16C345.46 272.556 345.714 278.219 345.979 284.091C346.167 287.026 346.081 290.019 346.117 293.054C346.125 296.089 346.134 299.168 346.144 302.285C346.186 327.215 346.224 349.781 346.251 366.142C346.241 374.294 346.231 380.899 346.225 385.492C346.21 387.758 346.199 389.526 346.191 390.754C346.182 391.336 346.174 391.791 346.169 392.121C346.162 392.429 346.144 392.587 346.144 392.587C346.144 392.587 346.126 392.43 346.117 392.121C346.11 391.791 346.1 391.336 346.087 390.754C346.072 389.526 346.05 387.758 346.023 385.494C345.991 380.901 345.944 374.296 345.886 366.145C345.82 349.786 345.729 327.222 345.628 302.296C345.62 299.179 345.611 296.1 345.603 293.064C345.569 290.03 345.658 287.038 345.473 284.104C345.219 278.233 344.974 272.569 344.742 267.173C344.286 256.386 343.877 246.669 343.533 238.5C343.208 230.355 342.944 223.756 342.762 219.167C342.683 216.902 342.621 215.134 342.578 213.908C342.564 213.324 342.552 212.87 342.544 212.539C342.539 212.232 342.549 212.073 342.549 212.073Z" fill="#33535F"/>
<path d="M341.791 183.496C341.827 183.492 341.901 183.843 342.002 184.481C342.105 185.12 342.228 186.046 342.359 187.193C342.625 189.488 342.902 192.669 343.063 196.191C343.221 199.715 343.23 202.908 343.173 205.217C343.145 206.371 343.105 207.306 343.061 207.95C343.018 208.595 342.976 208.951 342.939 208.95C342.865 208.948 342.845 207.521 342.808 205.216C342.772 202.91 342.704 199.728 342.547 196.214C342.388 192.703 342.167 189.526 341.996 187.228C341.825 184.928 341.717 183.505 341.791 183.496Z" fill="#33535F"/>
<path d="M335.124 185.538C335.177 185.603 334.609 185.861 334.453 186.669C334.38 187.055 334.462 187.547 334.838 187.878C335.196 188.211 335.823 188.379 336.326 188.149C336.828 187.917 337.11 187.335 337.093 186.845C337.089 186.344 336.769 185.961 336.429 185.765C335.715 185.354 335.149 185.617 335.134 185.534C335.12 185.507 335.23 185.403 335.486 185.328C335.737 185.255 336.15 185.236 336.598 185.44C337.034 185.626 337.53 186.125 337.568 186.82C337.617 187.482 337.281 188.265 336.541 188.62C335.789 188.948 334.977 188.691 334.508 188.222C334.006 187.739 333.953 187.037 334.097 186.585C334.236 186.113 334.518 185.812 334.74 185.669C334.963 185.525 335.114 185.511 335.124 185.538Z" fill="#33535F"/>
<path d="M319.25 183.741C319.277 183.734 319.399 184.065 319.521 184.69C319.645 185.314 319.722 186.246 319.609 187.387C319.501 188.526 319.155 189.873 318.464 191.23C317.777 192.586 316.711 193.936 315.282 194.977C313.837 195.999 312.215 196.578 310.712 196.795C309.205 197.016 307.818 196.912 306.704 196.651C305.587 196.392 304.73 196.022 304.177 195.705C303.625 195.39 303.349 195.168 303.366 195.144C303.415 195.043 304.585 195.882 306.776 196.293C308.915 196.719 312.212 196.526 314.98 194.558C317.728 192.565 318.967 189.503 319.247 187.341C319.558 185.134 319.138 183.755 319.25 183.741Z" fill="#33535F"/>
<path d="M358.172 192.426C358.173 192.475 357.421 192.532 356.266 192.2C355.117 191.877 353.603 191.066 352.362 189.703C351.124 188.335 350.462 186.75 350.253 185.575C350.034 184.393 350.163 183.651 350.212 183.657C350.304 183.656 350.309 184.385 350.608 185.492C350.9 186.596 351.574 188.059 352.744 189.356C353.921 190.644 355.312 191.458 356.383 191.855C357.456 192.258 358.182 192.335 358.172 192.426Z" fill="#33535F"/>
<path d="M369.99 290.143C370.024 290.189 369.417 290.795 368.236 291.538C367.644 291.899 366.894 292.294 365.979 292.524C365.073 292.759 363.977 292.791 362.934 292.442C360.822 291.746 359.503 290.158 358.696 289.071C357.888 287.946 357.482 287.199 357.532 287.162C357.597 287.116 358.115 287.795 358.983 288.845C359.85 289.863 361.158 291.319 363.091 291.95C365.032 292.599 366.892 291.837 368.055 291.22C369.249 290.58 369.94 290.074 369.99 290.143Z" fill="#33535F"/>
<path d="M362.416 295.932C362.3 296.015 360.898 294.242 359.285 291.974C357.671 289.706 356.457 287.8 356.574 287.717C356.69 287.634 358.093 289.406 359.706 291.676C361.319 293.943 362.532 295.85 362.416 295.932Z" fill="#33535F"/>
<path d="M311.578 215.591C311.446 215.644 311.093 215.073 310.789 214.315C310.486 213.558 310.349 212.9 310.48 212.848C310.613 212.794 310.966 213.366 311.269 214.124C311.572 214.881 311.711 215.539 311.578 215.591Z" fill="#FAFAF9"/>
<path d="M330.787 218.335C330.643 218.335 330.528 217.843 330.528 217.238C330.528 216.631 330.643 216.14 330.787 216.14C330.928 216.14 331.043 216.631 331.043 217.238C331.043 217.843 330.928 218.335 330.787 218.335Z" fill="#FAFAF9"/>
<path d="M322.892 228.764C322.75 228.773 322.594 228.167 322.542 227.409C322.491 226.652 322.564 226.03 322.707 226.02C322.85 226.01 323.006 226.618 323.057 227.374C323.109 228.132 323.035 228.754 322.892 228.764Z" fill="#FAFAF9"/>
<path d="M308.468 236.445C308.351 236.532 307.941 236.167 307.41 235.785C306.884 235.398 306.409 235.121 306.456 234.981C306.495 234.848 307.113 234.928 307.714 235.368C308.317 235.803 308.583 236.367 308.468 236.445Z" fill="#FAFAF9"/>
<path d="M333.895 246.14C333.776 246.06 333.927 245.629 334.229 245.175C334.532 244.719 334.874 244.415 334.993 244.494C335.111 244.572 334.962 245.006 334.659 245.46C334.356 245.916 334.013 246.219 333.895 246.14Z" fill="#FAFAF9"/>
<path d="M318.163 248.885C318.021 248.885 317.906 248.065 317.906 247.054C317.906 246.044 318.021 245.225 318.163 245.225C318.306 245.225 318.422 246.044 318.422 247.054C318.422 248.065 318.306 248.885 318.163 248.885Z" fill="#FAFAF9"/>
<path d="M313.065 260.012C312.98 260.127 312.463 259.894 311.906 259.489C311.351 259.085 310.968 258.665 311.052 258.548C311.135 258.433 311.653 258.667 312.21 259.07C312.765 259.475 313.148 259.896 313.065 260.012Z" fill="#FAFAF9"/>
<path d="M328.956 263.884C329.014 264.014 328.692 264.284 328.238 264.485C327.784 264.689 327.368 264.746 327.311 264.615C327.252 264.485 327.573 264.216 328.028 264.014C328.483 263.812 328.898 263.753 328.956 263.884Z" fill="#FAFAF9"/>
<path d="M318.163 281.994C318.037 282.057 317.523 281.291 317.019 280.28C316.513 279.27 316.206 278.399 316.334 278.336C316.462 278.272 316.975 279.039 317.48 280.05C317.985 281.059 318.291 281.93 318.163 281.994Z" fill="#FAFAF9"/>
<path d="M335.725 280.348C335.599 280.28 335.825 279.611 336.229 278.854C336.632 278.096 337.063 277.537 337.189 277.603C337.315 277.67 337.089 278.34 336.685 279.097C336.281 279.855 335.851 280.415 335.725 280.348Z" fill="#FAFAF9"/>
<path d="M328.042 295.713C327.895 295.691 327.907 294.909 327.755 293.978C327.612 293.045 327.36 292.304 327.493 292.238C327.612 292.171 328.106 292.873 328.265 293.898C328.431 294.919 328.177 295.741 328.042 295.713Z" fill="#FAFAF9"/>
<path d="M319.81 304.493C319.705 304.59 319.21 304.217 318.704 303.662C318.199 303.106 317.876 302.578 317.98 302.481C318.086 302.385 318.581 302.758 319.087 303.315C319.591 303.87 319.915 304.398 319.81 304.493Z" fill="#FAFAF9"/>
<path d="M339.79 307.826C339.687 307.726 340.052 307.191 340.603 306.632C341.156 306.071 341.684 305.698 341.785 305.799C341.888 305.899 341.524 306.434 340.971 306.994C340.42 307.553 339.891 307.925 339.79 307.826Z" fill="#FAFAF9"/>
<path d="M328.298 320.969C328.157 320.947 328.155 320.191 328.293 319.281C328.43 318.369 328.658 317.647 328.799 317.669C328.94 317.689 328.942 318.446 328.803 319.358C328.665 320.269 328.438 320.99 328.298 320.969Z" fill="#FAFAF9"/>
<path d="M320.566 327.346C320.443 327.418 320.008 326.906 319.597 326.204C319.186 325.5 318.952 324.873 319.075 324.801C319.198 324.728 319.632 325.24 320.043 325.944C320.454 326.646 320.689 327.274 320.566 327.346Z" fill="#FAFAF9"/>
<path d="M339.193 335.398C339.276 335.514 338.77 336.018 338.063 336.524C337.357 337.03 336.717 337.347 336.633 337.23C336.551 337.113 337.056 336.61 337.763 336.105C338.469 335.599 339.109 335.282 339.193 335.398Z" fill="#FAFAF9"/>
<path d="M323.678 345.845C323.54 345.794 323.717 344.996 323.8 344.008C323.89 343.021 323.856 342.204 324.002 342.179C324.136 342.15 324.411 342.989 324.314 344.053C324.222 345.12 323.806 345.897 323.678 345.845Z" fill="#FAFAF9"/>
<path d="M329.872 360.836C329.76 360.925 329.341 360.587 328.937 360.083C328.534 359.578 328.297 359.095 328.408 359.006C328.519 358.917 328.936 359.254 329.34 359.759C329.745 360.264 329.982 360.746 329.872 360.836Z" fill="#FAFAF9"/>
<path d="M323.102 370.896C322.984 370.978 322.439 370.387 321.883 369.58C321.328 368.77 320.973 368.051 321.091 367.97C321.208 367.89 321.753 368.478 322.31 369.287C322.864 370.095 323.221 370.816 323.102 370.896Z" fill="#FAFAF9"/>
<path d="M341.762 358.274C341.628 358.225 341.643 357.856 341.794 357.452C341.946 357.048 342.176 356.762 342.31 356.811C342.443 356.861 342.429 357.23 342.277 357.634C342.126 358.037 341.895 358.325 341.762 358.274Z" fill="#FAFAF9"/>
<path d="M333.529 382.239C333.398 382.169 333.647 381.463 333.841 380.58C334.04 379.697 334.113 378.952 334.26 378.945C334.398 378.934 334.56 379.731 334.344 380.692C334.134 381.654 333.648 382.307 333.529 382.239Z" fill="#FAFAF9"/>
<path d="M338.879 228.924C338.75 228.984 338.435 228.586 338.177 228.032C337.918 227.48 337.813 226.983 337.942 226.922C338.072 226.862 338.386 227.26 338.644 227.814C338.903 228.366 339.009 228.863 338.879 228.924Z" fill="#FAFAF9"/>
<path d="M325.115 198.031C325.194 198.156 324.495 198.714 323.758 199.508C323.013 200.294 322.501 201.027 322.37 200.957C322.247 200.897 322.584 200 323.381 199.155C324.173 198.304 325.048 197.911 325.115 198.031Z" fill="#FAFAF9"/>
<path d="M337.371 197.665C337.227 197.693 336.993 197.104 336.65 196.425C336.313 195.741 335.981 195.2 336.091 195.103C336.192 195.008 336.738 195.441 337.111 196.193C337.489 196.944 337.508 197.641 337.371 197.665Z" fill="#FAFAF9"/>
<path d="M299.186 207.744C299.053 207.692 299.189 207.034 299.489 206.275C299.789 205.516 300.14 204.944 300.273 204.995C300.406 205.048 300.27 205.706 299.969 206.464C299.669 207.223 299.319 207.796 299.186 207.744Z" fill="#FAFAF9"/>
<path d="M300.42 222.726C300.328 222.835 299.763 222.515 299.157 222.009C298.55 221.504 298.133 221.006 298.225 220.896C298.316 220.787 298.88 221.107 299.487 221.613C300.094 222.117 300.511 222.616 300.42 222.726Z" fill="#FAFAF9"/>
<path d="M325.481 186.14C325.348 186.193 325.078 185.826 324.875 185.321C324.673 184.815 324.617 184.363 324.749 184.31C324.881 184.258 325.153 184.624 325.354 185.129C325.557 185.635 325.613 186.087 325.481 186.14Z" fill="#FAFAF9"/>
<path d="M349.475 193.463C349.337 193.433 349.348 192.836 349.503 192.129C349.658 191.423 349.896 190.874 350.036 190.905C350.175 190.936 350.163 191.533 350.007 192.24C349.852 192.947 349.614 193.494 349.475 193.463Z" fill="#FAFAF9"/>
<path d="M355.115 204.799C354.983 204.744 355.163 204.004 355.516 203.145C355.871 202.286 356.263 201.634 356.395 201.689C356.527 201.743 356.348 202.484 355.995 203.342C355.64 204.201 355.247 204.852 355.115 204.799Z" fill="#FAFAF9"/>
<path d="M351.09 213.945C350.962 214.009 350.491 213.323 350.037 212.414C349.582 211.505 349.317 210.716 349.444 210.653C349.572 210.588 350.044 211.273 350.499 212.183C350.953 213.093 351.218 213.881 351.09 213.945Z" fill="#FAFAF9"/>
<path d="M359.688 223.091C359.555 223.039 359.652 222.466 359.904 221.809C360.157 221.153 360.47 220.663 360.603 220.713C360.736 220.764 360.639 221.338 360.386 221.995C360.133 222.652 359.821 223.143 359.688 223.091Z" fill="#FAFAF9"/>
<path d="M352.005 232.055C351.884 232.13 351.581 231.864 351.329 231.459C351.076 231.056 350.969 230.667 351.09 230.59C351.211 230.515 351.514 230.782 351.767 231.187C352.02 231.59 352.126 231.979 352.005 232.055Z" fill="#FAFAF9"/>
<path d="M353.645 250.536C353.541 250.634 352.924 250.139 352.267 249.432C351.61 248.725 351.163 248.073 351.267 247.976C351.371 247.879 351.989 248.373 352.646 249.08C353.303 249.787 353.75 250.439 353.645 250.536Z" fill="#FAFAF9"/>
<path d="M363.712 239.921C363.601 240.009 363.059 239.507 362.503 238.8C361.947 238.093 361.587 237.448 361.7 237.36C361.813 237.271 362.354 237.773 362.909 238.481C363.465 239.188 363.824 239.833 363.712 239.921Z" fill="#FAFAF9"/>
<path d="M369.236 254.572C369.107 254.511 369.332 253.766 369.739 252.909C370.145 252.05 370.58 251.405 370.709 251.466C370.838 251.527 370.613 252.272 370.206 253.129C369.799 253.986 369.365 254.633 369.236 254.572Z" fill="#FAFAF9"/>
<path d="M357.493 266.628C357.367 266.705 356.906 266.153 356.268 265.57C355.635 264.979 355.049 264.565 355.115 264.433C355.172 264.308 355.922 264.544 356.619 265.19C357.318 265.833 357.614 266.562 357.493 266.628Z" fill="#FAFAF9"/>
<path d="M358.225 279.068C358.225 279.209 357.734 279.324 357.126 279.324C356.521 279.324 356.029 279.209 356.029 279.068C356.029 278.925 356.521 278.809 357.126 278.809C357.734 278.809 358.225 278.925 358.225 279.068Z" fill="#FAFAF9"/>
<path d="M370.298 275.592C370.173 275.514 370.427 274.896 370.618 274.117C370.817 273.339 370.882 272.674 371.03 272.665C371.167 272.649 371.338 273.374 371.12 274.242C370.904 275.111 370.412 275.67 370.298 275.592Z" fill="#FAFAF9"/>
<path d="M382.292 279.762C382.158 279.81 381.792 279.114 381.475 278.211C381.157 277.306 381.009 276.535 381.144 276.487C381.278 276.44 381.644 277.134 381.962 278.04C382.279 278.944 382.427 279.715 382.292 279.762Z" fill="#FAFAF9"/>
<path d="M380.382 296.823C380.256 296.757 380.561 295.924 381.064 294.964C381.568 294.003 382.079 293.278 382.205 293.344C382.331 293.411 382.025 294.242 381.522 295.203C381.018 296.164 380.509 296.889 380.382 296.823Z" fill="#FAFAF9"/>
<path d="M369.434 306.85C369.303 306.905 368.896 306.218 368.524 305.316C368.153 304.413 367.961 303.638 368.093 303.584C368.225 303.53 368.632 304.216 369.002 305.119C369.373 306.022 369.567 306.797 369.434 306.85Z" fill="#FAFAF9"/>
<path d="M357.31 310.714C357.31 310.857 356.9 310.972 356.396 310.972C355.891 310.972 355.481 310.857 355.481 310.714C355.481 310.57 355.891 310.455 356.396 310.455C356.9 310.455 357.31 310.57 357.31 310.714Z" fill="#FAFAF9"/>
<path d="M364.262 326.628C364.124 326.665 363.848 326.081 363.647 325.324C363.444 324.565 363.392 323.921 363.53 323.884C363.668 323.848 363.942 324.432 364.145 325.19C364.347 325.947 364.399 326.591 364.262 326.628Z" fill="#FAFAF9"/>
<path d="M355.481 321.323C355.359 321.249 355.505 320.78 355.808 320.277C356.112 319.771 356.456 319.42 356.579 319.495C356.701 319.567 356.554 320.035 356.251 320.541C355.948 321.046 355.603 321.397 355.481 321.323Z" fill="#FAFAF9"/>
<path d="M355.297 338.884C355.156 338.901 354.96 338.218 354.858 337.359C354.758 336.5 354.79 335.791 354.931 335.775C355.074 335.758 355.271 336.441 355.372 337.3C355.472 338.158 355.439 338.868 355.297 338.884Z" fill="#FAFAF9"/>
</g>
<defs>
<clipPath id="clip0_10_1455">
<rect width="438" height="420.025" fill="white"/>
</clipPath>
</defs>
</svg>
